# xmcd CD database file
#
# Track frame offsets:
#	150
#	22257
#	42180
#	62330
#	89439
#	107586
#	137513
#	159949
#	188517
#	228399
#	271237
#	292162
#
# Disc length: 4168 seconds
#
# Revision: 0
# Processed by: cddbd v1.5PL3 Copyright (c) Steve Scherf et al.
# Submitted via: CDex 1.50beta8
#
DISCID=9c10460c
DTITLE=DOWN FORCE RECORDS - Thank you for the memories
DYEAR=2002
DGENRE=Techno
TTITLE0=muramasa - siscc
TTITLE1=kou - artxe
TTITLE2=kou - stereo grab
TTITLE3=SIGN - brains
TTITLE4=SIGN - hypnosis
TTITLE5=Moongate - ils viennent de nulle part
TTITLE6=off-beat - adventus
TTITLE7=off-beat - final vent
TTITLE8=absractor - 39 (remix)
TTITLE9=abstractor - tree
TTITLE10=Moongate - l'appel du sommeil
TTITLE11=kou - reunion
EXTD=YEAR: 2002
EXTT0=
EXTT1=
EXTT2=
EXTT3=
EXTT4=
EXTT5=
EXTT6=
EXTT7=
EXTT8=
EXTT9=
EXTT10=
EXTT11=
PLAYORDER=
